<mxfile host="app.diagrams.net" modified="2022-09-16T11:38:42.592Z" agent="5.0 (Windows NT 10.0; Win64; x64) AppleWebKit/537.36 (KHTML, like Gecko) Chrome/105.0.0.0 Safari/537.36" etag="PV-XxX1PTVLocLMKqC0i" version="20.3.1" type="github">
  <diagram id="C5RBs43oDa-KdzZeNtuy" name="Page-1">
    <mxGraphModel dx="2211" dy="741" grid="1" gridSize="10" guides="1" tooltips="1" connect="1" arrows="1" fold="1" page="1" pageScale="1" pageWidth="827" pageHeight="1169" math="0" shadow="0">
      <root>
        <mxCell id="WIyWlLk6GJQsqaUBKTNV-0" />
        <mxCell id="WIyWlLk6GJQsqaUBKTNV-1" parent="WIyWlLk6GJQsqaUBKTNV-0" />
        <mxCell id="HAlKXmDzrB93N0-EfDcC-2" value="frame" style="shape=umlFrame;whiteSpace=wrap;html=1;width=60;height=20;" parent="WIyWlLk6GJQsqaUBKTNV-1" vertex="1">
          <mxGeometry x="270" y="40" width="610" height="720" as="geometry" />
        </mxCell>
        <mxCell id="zkfFHV4jXpPFQw0GAbJ--16" value="" style="endArrow=block;endSize=10;endFill=0;shadow=0;strokeWidth=1;rounded=0;edgeStyle=elbowEdgeStyle;elbow=vertical;entryX=0.5;entryY=0;entryDx=0;entryDy=0;entryPerimeter=0;" parent="WIyWlLk6GJQsqaUBKTNV-1" target="HAlKXmDzrB93N0-EfDcC-4" edge="1">
          <mxGeometry width="160" relative="1" as="geometry">
            <mxPoint x="100" y="280" as="sourcePoint" />
            <mxPoint x="110" y="360" as="targetPoint" />
            <Array as="points">
              <mxPoint x="40" y="280" />
              <mxPoint x="160" y="330" />
            </Array>
          </mxGeometry>
        </mxCell>
        <mxCell id="HAlKXmDzrB93N0-EfDcC-1" value="Отримати температуру&lt;br&gt;навколишнього сережовища" style="ellipse;whiteSpace=wrap;html=1;" parent="WIyWlLk6GJQsqaUBKTNV-1" vertex="1">
          <mxGeometry x="520" y="50" width="150" height="80" as="geometry" />
        </mxCell>
        <mxCell id="HAlKXmDzrB93N0-EfDcC-3" value="Авторизація" style="ellipse;whiteSpace=wrap;html=1;" parent="WIyWlLk6GJQsqaUBKTNV-1" vertex="1">
          <mxGeometry x="550" y="340" width="140" height="70" as="geometry" />
        </mxCell>
        <mxCell id="HAlKXmDzrB93N0-EfDcC-4" value="Користувач" style="shape=umlActor;verticalLabelPosition=bottom;verticalAlign=top;html=1;" parent="WIyWlLk6GJQsqaUBKTNV-1" vertex="1">
          <mxGeometry x="-40" y="340" width="30" height="60" as="geometry" />
        </mxCell>
        <mxCell id="HAlKXmDzrB93N0-EfDcC-6" value="Автор" style="shape=umlActor;verticalLabelPosition=bottom;verticalAlign=top;html=1;" parent="WIyWlLk6GJQsqaUBKTNV-1" vertex="1">
          <mxGeometry x="110" y="240" width="30" height="60" as="geometry" />
        </mxCell>
        <mxCell id="HAlKXmDzrB93N0-EfDcC-8" value="Отримати плани тренувань" style="ellipse;whiteSpace=wrap;html=1;" parent="WIyWlLk6GJQsqaUBKTNV-1" vertex="1">
          <mxGeometry x="650" y="460" width="140" height="75" as="geometry" />
        </mxCell>
        <mxCell id="0XJ4_VQ6ZXN6mC0-2l_H-8" value="" style="endArrow=open;endFill=1;endSize=12;html=1;rounded=0;exitX=0;exitY=0.5;exitDx=0;exitDy=0;" parent="WIyWlLk6GJQsqaUBKTNV-1" source="HAlKXmDzrB93N0-EfDcC-1" edge="1">
          <mxGeometry width="160" relative="1" as="geometry">
            <mxPoint x="310" y="390" as="sourcePoint" />
            <mxPoint x="120" y="220" as="targetPoint" />
            <Array as="points">
              <mxPoint x="120" y="90" />
            </Array>
          </mxGeometry>
        </mxCell>
        <mxCell id="0XJ4_VQ6ZXN6mC0-2l_H-10" value="&amp;lt;&amp;lt;include&amp;gt;&amp;gt;" style="endArrow=open;endSize=12;dashed=1;html=1;rounded=0;exitX=0.643;exitY=1.015;exitDx=0;exitDy=0;exitPerimeter=0;" parent="WIyWlLk6GJQsqaUBKTNV-1" source="HAlKXmDzrB93N0-EfDcC-1" target="HAlKXmDzrB93N0-EfDcC-3" edge="1">
          <mxGeometry x="-0.6211" y="30" width="160" relative="1" as="geometry">
            <mxPoint x="414" y="239.17" as="sourcePoint" />
            <mxPoint x="574" y="239.17" as="targetPoint" />
            <mxPoint as="offset" />
          </mxGeometry>
        </mxCell>
        <mxCell id="0XJ4_VQ6ZXN6mC0-2l_H-11" value="Отримати інформацію" style="ellipse;whiteSpace=wrap;html=1;" parent="WIyWlLk6GJQsqaUBKTNV-1" vertex="1">
          <mxGeometry x="640" y="250" width="150" height="80" as="geometry" />
        </mxCell>
        <mxCell id="0XJ4_VQ6ZXN6mC0-2l_H-12" value="Отримати запис пісні" style="ellipse;whiteSpace=wrap;html=1;" parent="WIyWlLk6GJQsqaUBKTNV-1" vertex="1">
          <mxGeometry x="600" y="650" width="140" height="80" as="geometry" />
        </mxCell>
        <mxCell id="0XJ4_VQ6ZXN6mC0-2l_H-14" value="&amp;lt;&amp;lt;include&amp;gt;&amp;gt;" style="endArrow=open;endSize=12;dashed=1;html=1;rounded=0;" parent="WIyWlLk6GJQsqaUBKTNV-1" source="HAlKXmDzrB93N0-EfDcC-8" target="HAlKXmDzrB93N0-EfDcC-3" edge="1">
          <mxGeometry x="-0.865" y="-31" width="160" relative="1" as="geometry">
            <mxPoint x="434" y="259.16999999999996" as="sourcePoint" />
            <mxPoint x="597.5397235285386" y="367.17409066190635" as="targetPoint" />
            <mxPoint as="offset" />
          </mxGeometry>
        </mxCell>
        <mxCell id="0XJ4_VQ6ZXN6mC0-2l_H-15" value="&amp;lt;&amp;lt;include&amp;gt;&amp;gt;" style="endArrow=open;endSize=12;dashed=1;html=1;rounded=0;entryX=0.5;entryY=1;entryDx=0;entryDy=0;exitX=0;exitY=0;exitDx=0;exitDy=0;" parent="WIyWlLk6GJQsqaUBKTNV-1" source="0XJ4_VQ6ZXN6mC0-2l_H-12" target="HAlKXmDzrB93N0-EfDcC-3" edge="1">
          <mxGeometry x="0.1399" y="17" width="160" relative="1" as="geometry">
            <mxPoint x="444" y="269.16999999999996" as="sourcePoint" />
            <mxPoint x="607.5397235285386" y="377.17409066190635" as="targetPoint" />
            <mxPoint as="offset" />
            <Array as="points" />
          </mxGeometry>
        </mxCell>
        <mxCell id="0XJ4_VQ6ZXN6mC0-2l_H-16" value="" style="endArrow=open;endFill=1;endSize=12;html=1;rounded=0;exitX=0;exitY=0.5;exitDx=0;exitDy=0;" parent="WIyWlLk6GJQsqaUBKTNV-1" source="0XJ4_VQ6ZXN6mC0-2l_H-11" edge="1">
          <mxGeometry width="160" relative="1" as="geometry">
            <mxPoint x="325" y="210" as="sourcePoint" />
            <mxPoint x="170" y="290" as="targetPoint" />
            <Array as="points" />
          </mxGeometry>
        </mxCell>
        <mxCell id="0XJ4_VQ6ZXN6mC0-2l_H-17" value="" style="endArrow=open;endFill=1;endSize=12;html=1;rounded=0;exitX=0;exitY=0.5;exitDx=0;exitDy=0;" parent="WIyWlLk6GJQsqaUBKTNV-1" source="HAlKXmDzrB93N0-EfDcC-8" edge="1">
          <mxGeometry width="160" relative="1" as="geometry">
            <mxPoint x="335" y="220" as="sourcePoint" />
            <mxPoint x="170" y="330" as="targetPoint" />
          </mxGeometry>
        </mxCell>
        <mxCell id="0XJ4_VQ6ZXN6mC0-2l_H-18" value="" style="endArrow=open;endFill=1;endSize=12;html=1;rounded=0;exitX=0;exitY=0.5;exitDx=0;exitDy=0;" parent="WIyWlLk6GJQsqaUBKTNV-1" source="0XJ4_VQ6ZXN6mC0-2l_H-12" edge="1">
          <mxGeometry width="160" relative="1" as="geometry">
            <mxPoint x="345" y="230" as="sourcePoint" />
            <mxPoint x="120" y="350" as="targetPoint" />
            <Array as="points">
              <mxPoint x="120" y="690" />
            </Array>
          </mxGeometry>
        </mxCell>
        <mxCell id="0XJ4_VQ6ZXN6mC0-2l_H-31" value="Створити запит&amp;nbsp;&lt;br&gt;на визначення температури" style="ellipse;whiteSpace=wrap;html=1;" parent="WIyWlLk6GJQsqaUBKTNV-1" vertex="1">
          <mxGeometry x="310" y="100" width="150" height="80" as="geometry" />
        </mxCell>
        <mxCell id="0XJ4_VQ6ZXN6mC0-2l_H-33" value="&amp;lt;&amp;lt;include&amp;gt;&amp;gt;" style="endArrow=open;endSize=12;dashed=1;html=1;rounded=0;exitX=1;exitY=1;exitDx=0;exitDy=0;" parent="WIyWlLk6GJQsqaUBKTNV-1" source="0XJ4_VQ6ZXN6mC0-2l_H-31" target="HAlKXmDzrB93N0-EfDcC-3" edge="1">
          <mxGeometry x="-0.2926" y="22" width="160" relative="1" as="geometry">
            <mxPoint x="536.45" y="141.20000000000005" as="sourcePoint" />
            <mxPoint x="616.8436515094345" y="350.6237345891677" as="targetPoint" />
            <mxPoint as="offset" />
          </mxGeometry>
        </mxCell>
        <mxCell id="0XJ4_VQ6ZXN6mC0-2l_H-34" value="Створити запит&amp;nbsp;&lt;br&gt;на отримання&lt;br&gt;інформації" style="ellipse;whiteSpace=wrap;html=1;" parent="WIyWlLk6GJQsqaUBKTNV-1" vertex="1">
          <mxGeometry x="310" y="200" width="150" height="80" as="geometry" />
        </mxCell>
        <mxCell id="0XJ4_VQ6ZXN6mC0-2l_H-36" value="&amp;lt;&amp;lt;include&amp;gt;&amp;gt;" style="endArrow=open;endSize=12;dashed=1;html=1;rounded=0;entryX=0;entryY=0;entryDx=0;entryDy=0;" parent="WIyWlLk6GJQsqaUBKTNV-1" source="0XJ4_VQ6ZXN6mC0-2l_H-34" target="HAlKXmDzrB93N0-EfDcC-3" edge="1">
          <mxGeometry x="-0.5873" y="27" width="160" relative="1" as="geometry">
            <mxPoint x="448.0330085889909" y="178.2842712474619" as="sourcePoint" />
            <mxPoint x="601.8447920374751" y="352.95595115867354" as="targetPoint" />
            <mxPoint as="offset" />
          </mxGeometry>
        </mxCell>
        <mxCell id="0XJ4_VQ6ZXN6mC0-2l_H-38" value="Створити запит&amp;nbsp;&lt;br&gt;на отримання&lt;br&gt;інформації" style="ellipse;whiteSpace=wrap;html=1;" parent="WIyWlLk6GJQsqaUBKTNV-1" vertex="1">
          <mxGeometry x="310" y="430" width="150" height="80" as="geometry" />
        </mxCell>
        <mxCell id="0XJ4_VQ6ZXN6mC0-2l_H-40" value="&amp;lt;&amp;lt;include&amp;gt;&amp;gt;" style="endArrow=open;endSize=12;dashed=1;html=1;rounded=0;exitX=1;exitY=0.5;exitDx=0;exitDy=0;entryX=0.075;entryY=0.746;entryDx=0;entryDy=0;entryPerimeter=0;" parent="WIyWlLk6GJQsqaUBKTNV-1" source="0XJ4_VQ6ZXN6mC0-2l_H-38" target="HAlKXmDzrB93N0-EfDcC-3" edge="1">
          <mxGeometry x="-0.1252" y="24" width="160" relative="1" as="geometry">
            <mxPoint x="430" y="410" as="sourcePoint" />
            <mxPoint x="590" y="410" as="targetPoint" />
            <Array as="points" />
            <mxPoint as="offset" />
          </mxGeometry>
        </mxCell>
        <mxCell id="0XJ4_VQ6ZXN6mC0-2l_H-41" value="Створити запит&amp;nbsp;&lt;br&gt;на запис пісні" style="ellipse;whiteSpace=wrap;html=1;" parent="WIyWlLk6GJQsqaUBKTNV-1" vertex="1">
          <mxGeometry x="310" y="570" width="150" height="80" as="geometry" />
        </mxCell>
        <mxCell id="0XJ4_VQ6ZXN6mC0-2l_H-42" value="&amp;lt;&amp;lt;include&amp;gt;&amp;gt;" style="endArrow=open;endSize=12;dashed=1;html=1;rounded=0;exitX=1;exitY=0;exitDx=0;exitDy=0;" parent="WIyWlLk6GJQsqaUBKTNV-1" source="0XJ4_VQ6ZXN6mC0-2l_H-41" target="HAlKXmDzrB93N0-EfDcC-3" edge="1">
          <mxGeometry width="160" relative="1" as="geometry">
            <mxPoint x="420" y="530" as="sourcePoint" />
            <mxPoint x="580" y="530" as="targetPoint" />
            <Array as="points">
              <mxPoint x="510" y="490" />
            </Array>
          </mxGeometry>
        </mxCell>
        <mxCell id="UvmKrB_0gXqGiXj6syD9-4" value="" style="endArrow=open;endFill=1;endSize=12;html=1;rounded=0;" edge="1" parent="WIyWlLk6GJQsqaUBKTNV-1">
          <mxGeometry width="160" relative="1" as="geometry">
            <mxPoint y="375" as="sourcePoint" />
            <mxPoint x="548" y="375" as="targetPoint" />
          </mxGeometry>
        </mxCell>
        <mxCell id="UvmKrB_0gXqGiXj6syD9-5" value="АРІ" style="shape=umlActor;verticalLabelPosition=bottom;verticalAlign=top;html=1;" vertex="1" parent="WIyWlLk6GJQsqaUBKTNV-1">
          <mxGeometry x="940" y="340" width="30" height="60" as="geometry" />
        </mxCell>
        <mxCell id="UvmKrB_0gXqGiXj6syD9-8" value="" style="endArrow=open;endFill=1;endSize=12;html=1;rounded=0;" edge="1" parent="WIyWlLk6GJQsqaUBKTNV-1" target="HAlKXmDzrB93N0-EfDcC-3">
          <mxGeometry width="160" relative="1" as="geometry">
            <mxPoint x="930" y="375" as="sourcePoint" />
            <mxPoint x="870" y="375" as="targetPoint" />
          </mxGeometry>
        </mxCell>
        <mxCell id="UvmKrB_0gXqGiXj6syD9-11" value="Провести вимірювання" style="ellipse;whiteSpace=wrap;html=1;" vertex="1" parent="WIyWlLk6GJQsqaUBKTNV-1">
          <mxGeometry x="720" y="130" width="140" height="70" as="geometry" />
        </mxCell>
        <mxCell id="UvmKrB_0gXqGiXj6syD9-12" value="&amp;lt;&amp;lt;extend&amp;gt;&amp;gt;" style="html=1;verticalAlign=bottom;endArrow=open;dashed=1;endSize=8;rounded=0;entryX=1;entryY=0.5;entryDx=0;entryDy=0;" edge="1" parent="WIyWlLk6GJQsqaUBKTNV-1" source="UvmKrB_0gXqGiXj6syD9-11" target="HAlKXmDzrB93N0-EfDcC-1">
          <mxGeometry x="-0.3671" y="-15" relative="1" as="geometry">
            <mxPoint x="760" y="90" as="sourcePoint" />
            <mxPoint x="680" y="90" as="targetPoint" />
            <mxPoint as="offset" />
          </mxGeometry>
        </mxCell>
      </root>
    </mxGraphModel>
  </diagram>
</mxfile>
